<svg xmlns="http://www.w3.org/2000/svg" xml:space="preserve" width="1500" height="1500" data-id="lg_nbLLCXxWYRQxTFQvqD" data-version="1" viewBox="0 0 1500 1500"><path fill="#929ab7" stroke="transparent" d="M0 0h1500v1500H0z"/><g data-padding="20"><g fill="#fff"><path d="M298.607 872.609q-8.486 0-13.248-3.988-4.28-3.579-4.28-9.187 0-6.238 5.186-11.218 5.755-5.536 15.147-6.456-.774-1.125-1.33-2.381-1.971-.073-3.797-.322-1.811-.233-3.433-.584-5.813-1.402-9.041-4.499-2.95-2.863-2.95-6.237 0-3.783 3.65-6.383 3.653-2.454 9.188-2.454 2.659 0 5.39.599 2.746.599 5.478 1.928.204.073.204.424 0 .7-.628.423-5.112-2.454-10.02-2.454-4.353 0-6.953 2.177-2.585 2.162-2.585 5.667 0 3.155 2.308 5.828 2.673 2.936 7.23 3.988 1.33.292 2.731.496t2.878.278q-.292-1.125-.292-2.585 0-4.981 4.002-8.984 4.762-4.761 13.526-6.237.92-.146 1.796-.204.877-.073 1.71-.073 3.797 0 6.178 1.607 2.38 1.548 2.38 4.133 0 4.076-5.681 8.063-7.216 4.981-20.186 5.405.073 1.124.555 2.176 1.197-.073 2.38-.044 1.198.044 2.396.117 2.512.205 2.512 1.884 0 1.622-2.731 1.622-3.579 0-6.033-2.454-6.441 1.051-10.575 6.514-3.725 5.113-3.725 11.145 0 4.908 2.6 7.932 2.805 3.432 8.063 3.432 3.36 0 6.383-1.402 3.01-1.402 5.39-3.652 2.381-2.235 3.754-4.689t1.373-4.557q0-1.972-1.446-3.272-1.431-1.285-4.66-1.285-2.176 0-4.659 1.008-2.498 1.022-4.806 2.6t-4.002 3.257q-1.68 1.68-2.235 2.95-.146.41-.57.205-.408-.204-.277-.628.774-1.826 2.527-3.725 1.753-1.884 4.134-3.564 2.38-1.694 5.127-2.702 2.731-1.022 5.536-1.022 5.331 0 7.712 1.898 2.38 1.885 2.38 4.558 0 2.38-1.606 4.98-1.621 2.586-4.528 4.865t-6.865 3.68q-3.973 1.403-8.662 1.403m4.558-34.428q10.94-.555 18.302-5.667 5.96-4.207 5.96-7.304 0-3.155-5.128-3.155-6.938 0-13.394 5.755-5.317 4.704-5.74 10.37m26.934 30.485q-4.703 0-4.703-5.814 0-3.3 1.475-6.938 1.125-2.731 2.279-5.331t2.278-4.98q.774-1.476 2.732-1.476h4.28q-1.257.92-2.381 2.395-1.125 1.46-2.104 3.506-4.557 9.246-4.557 13.248 0 3.082 2.454 3.082 4.207 0 8.837-11.568-.92-1.9-.92-4.485 0-1.27.35-2.527.774-2.6 2.323-3.929 1.402-1.256 2.585-1.256 1.27 0 1.27 1.125l-.35 1.256q-1.548 4.762-2.906 8.384-1.373 3.608-2.63 6.062-4.849 9.246-10.312 9.246m22.494-.19q-2.731 0-4.703-1.753-1.052-.978-1.504-2.278t-.453-2.98q0-6.456 5.331-12.825 4.484-5.404 9.32-5.404 1.606 0 2.73.847 1.198.979 1.198 2.512 0 3.856-5.127 7.713-1.606 1.197-4.265 2.103-2.95.993-4.28.993-.978 2.381-.978 5.04 0 4.557 3.36 4.557 4.41 0 8.267-5.74l.292-.424 1.183.482-.204.423q-1.753 3.506-4.426 5.127-2.659 1.607-5.74 1.607m-1.33-12.27q1.183 0 3.287-.774 1.197-.482 2.278-1.051 1.096-.555 1.928-1.257 3.856-3.228 3.856-6.806 0-1.534-1.124-1.534-1.958 0-5.96 4.835-2.03 2.454-4.265 6.587m12.898 12.475q1.402-3.433 3.505-8.472 2.104-5.054 5.113-11.642.628-1.402 1.197-2.322.555-.906 1.052-1.402.979-.98 2.527-.98h.482q.35 0 .979.147.993.073 1.475 0-2.585 1.534-7.785 13.599.847-1.198 2.278-2.63 1.446-1.43 3.404-3.184 1.27-1.197 2.804-2.278 1.548-1.096 3.374-2.075 4.134-2.307 6.091-2.307.497 0 .701.058-1.124 1.972-2.06 3.798l-1.796 3.432q-4.06 7.844-4.557 10.868-.073.482-.102.905t-.03.774q0 1.826 1.33 1.826 2.176 0 5.185-4.426l.979.702q-3.579 5.404-7.216 5.404-4.426 0-4.426-4.557 0-3.71 4.557-11.014.702-1.11.702-1.884 0-.847-.76-.847-.774 0-2.001.803-1.227.818-2.907 2.352-2.673 2.454-4.98 5.857-2.323 3.404-4.207 7.742-.424 1.051-2.177 1.27-2.25.205-2.731.483m35.26-.497q-4.557 0-4.557-4.981 0-.979.175-2.03t.599-2.104q3.71-9.815 6.31-15.994h-4.557l.847-1.534h4.338l1.68-4.907q.92-2.6 1.548-3.082.497-.351 2.25-.351l3.009.058q-1.403 1.198-2.104 2.878l-2.308 5.404h5.317l-.832 1.534h-5.127q-.482 1.125-.935 2.25-.468 1.124-1.023 2.307-1.475 3.228-2.526 6.106-1.257 3.301-2.002 5.682-.73 2.38-.876 3.783-.278 3.433 1.826 3.433 1.972 0 4.776-4.207l.833.979q-3.36 4.776-6.66 4.776m15.993.292q-3.505 0-5.404-2.103-1.548-1.753-1.548-4.207 0-3.579 2.25-3.579.846 0 1.547.628.701.702.701 1.622 0 .555-.292.905-.905 1.125-.905 2.454t.847 2.177q.906.905 2.308.905 1.475 0 2.658-.978 1.622-1.476 1.622-4.061 0-2.25-1.198-5.054-.482-.701-1.154-1.826-.672-1.11-1.505-2.658-.496-.847-.672-1.724t-.175-1.709q0-2.95 2.177-4.703 2.249-1.826 5.755-1.826.978 0 1.928.22.934.204 1.709.773 1.621 1.184 1.621 2.936 0 .774-.292 1.403-.628 1.825-2.732 1.825-2.307 0-2.307-2.38 0-.702.204-1.198.22-.701 1.548-1.402-.496-.906-1.825-.906-1.198 0-1.753.555-1.68 1.475-1.68 3.725 0 1.533.833 3.36.146.277 2.746 4.41 1.752 2.805 1.752 4.704 0 3.009-2.804 5.331-2.805 2.381-5.96 2.381m33.873-.292q-4.557 0-4.557-4.981 0-.979.175-2.03t.599-2.104q3.71-9.815 6.31-15.994h-4.557l.832-1.534h4.353l1.68-4.907q.92-2.6 1.548-3.082.482-.351 2.235-.351l3.024.058q-1.403 1.198-2.104 2.878l-2.322 5.404h5.331l-.832 1.534h-5.127q-.482 1.125-.95 2.25-.453 1.124-1.008 2.307-1.475 3.228-2.526 6.106-1.257 3.301-2.002 5.682-.73 2.38-.876 3.783-.278 3.433 1.826 3.433 1.957 0 4.762-4.207l.847.979q-3.36 4.776-6.66 4.776m8.675.497q2.381-5.463 6.836-15.659 4.455-10.21 11.043-25.065.073-.219.102-.423.044-.22.044-.424 0-.979-.847-2.103h3.783q1.972 0 1.972.905 0 .497-.424 1.476-2.176 4.703-5.609 12.342t-8.209 18.23q1.052-1.476 2.527-3.01 1.476-1.548 3.301-3.155 1.257-1.197 2.805-2.278 1.534-1.096 3.36-2.075 4.133-2.307 6.105-2.307.482 0 .701.058-1.125 1.972-2.074 3.798-.95 1.811-1.782 3.432-4.075 7.844-4.557 10.868-.22 1.051-.22 1.825 0 1.885 1.403 1.885 1.899 0 5.127-4.689l1.051.628q-3.651 5.536-7.23 5.536-4.411 0-4.411-4.557 0-3.71 4.557-11.014.701-1.11.701-1.884 0-.847-.774-.847t-2 .803q-1.228.818-2.908 2.352-2.658 2.454-5.01 5.93-2.351 3.462-4.382 7.96-.496 1.053-2.25 1.111-2.307.146-2.73.35m46.273-.35q-1.533 0-2.527-.906-1.402-1.197-1.402-4.002 0-1.811.643-4.134-2.396 4.003-4.981 6.53-2.673 2.454-4.776 2.454-1.812 0-2.863-1.622-1.125-1.534-1.125-4.28 0-6.66 5.96-13.73.978-1.198 2.234-2.176 1.271-.979 2.746-1.753 3.01-1.548 5.814-1.548 3.432 0 5.463 2.25.496.481.496 1.124 0 1.183-1.256.905-.701-2.526-3.301-2.526-2.95 0-6.938 4.133-1.402 1.549-2.673 3.2-1.256 1.65-2.381 3.46-3.009 5.055-3.009 8.21 0 2.38 1.826 2.38 2.03 0 4.689-3.081 1.475-1.68 3.023-4.134 1.534-2.454 3.214-5.682.7-1.33 1.27-2.176.555-.833.906-1.257 1.125-1.124 2.673-1.051l1.402.204q.906.22 1.534.073-.628.628-1.505 2.001-.876 1.359-2 3.535-1.184 2.323-1.958 4.207-.774 1.899-1.052 3.374-.146.701-.219 1.285-.058.6-.058 1.096 0 1.826.978 1.826 1.403 0 3.857-3.097l.277-.35.979.642-.278.41q-2.877 4.206-5.682 4.206m15.44-.146q-4.558 0-4.558-4.981 0-.979.175-2.03t.6-2.104q3.71-9.815 6.31-15.994h-4.558l.847-1.534h4.338l1.68-4.907q.92-2.6 1.549-3.082.496-.351 2.249-.351l3.009.058q-1.402 1.198-2.103 2.878l-2.308 5.404h5.317l-.833 1.534h-5.127q-.482 1.125-.935 2.25-.467 1.124-1.022 2.307-1.476 3.228-2.527 6.106-1.256 3.301-2.001 5.682-.73 2.38-.877 3.783-.277 3.433 1.826 3.433 1.972 0 4.776-4.207l.833.979q-3.36 4.776-6.66 4.776m27.606 6.675q-5.813 0-5.96-4.63 0-1.957 1.271-3.506 1.256-1.548 3.082-1.548 1.402 0 2.25 1.052.76.847.76 2.103 0 3.506-3.214 3.506-1.695 0-2.396-1.403.35 2.527 4.149 2.527.76 0 1.46-.204 8.21-2.104 14.797-12.898 6.529-10.663 13.19-24.758 5.039-10.648 9.041-14.373-4.353 1.198-7.888 2.454-3.549 1.27-6.207 2.527-7.216 3.36-12.343 8.486-1.753 1.753-3.228 4.485-.833 1.548-1.285 2.95-.468 1.402-.468 2.585 0 3.784 4.499 4.28.204 0 .409.03.22.043.424.043 1.27 0 2.6-.423t2.804-1.125q.482-.205.555.35v.147q0 .423-.482.7-1.475.629-3.053 1.008-1.577.395-3.199.6-.482.072-.905.102-.424.043-.906.043-3.447 0-5.258-1.62-1.826-1.68-1.826-4.412 0-4.207 3.988-8.837 2.249-2.585 5.2-4.733 2.935-2.132 6.792-3.885 4.776-2.176 10.341-4.075 5.58-1.885 11.963-3.637 1.256-.774 2.454-1.227 1.183-.453 2.308-.745 1.051-.205 1.957-.205 2.454 0 2.454 1.476 0 1.051-1.33 1.957-1.329.92-3.505.92-1.753 0-3.856-.774h-.774q-3.856 2.804-7.362 14.504-4.966 16.477-10.575 25.314-8.91 13.817-21.457 14.796-.278 0-.6.03-.32.043-.671.043m31.77-6.178q1.402-3.433 3.505-8.472 2.103-5.054 5.112-11.642.628-1.402 1.198-2.322.555-.906 1.052-1.402.978-.98 2.527-.98h.482q.35 0 .978.147.994.073 1.476 0-2.586 1.534-7.786 13.599.847-1.198 2.279-2.63 1.446-1.43 3.403-3.184 1.271-1.197 2.805-2.278 1.548-1.096 3.374-2.075 4.133-2.307 6.09-2.307.497 0 .702.058-1.125 1.972-2.06 3.798l-1.796 3.432q-4.06 7.844-4.558 10.868-.073.482-.102.905t-.029.774q0 1.826 1.33 1.826 2.176 0 5.185-4.426l.978.702q-3.578 5.404-7.215 5.404-4.426 0-4.426-4.557 0-3.71 4.557-11.014.701-1.11.701-1.884 0-.847-.76-.847-.774 0-2 .803-1.227.818-2.907 2.352-2.673 2.454-4.981 5.857-2.323 3.404-4.207 7.742-.423 1.051-2.176 1.27-2.25.205-2.732.483m34.837-.205q-3.505 0-5.39-2.103-1.548-1.753-1.548-4.207 0-3.579 2.25-3.579.832 0 1.533.628.701.702.701 1.622 0 .555-.277.905-.906 1.125-.906 2.454t.833 2.177q.92.905 2.322.905 1.475 0 2.659-.978 1.62-1.476 1.62-4.061 0-2.25-1.197-5.054-.497-.701-1.154-1.826-.672-1.11-1.504-2.658-.497-.847-.672-1.724t-.175-1.709q0-2.95 2.176-4.703 2.235-1.826 5.74-1.826.994 0 1.928.22.95.204 1.724.773 1.607 1.184 1.607 2.936 0 .774-.278 1.403-.628 1.825-2.731 1.825-2.308 0-2.308-2.38 0-.702.204-1.198.205-.701 1.549-1.402-.497-.906-1.826-.906-1.198 0-1.753.555-1.68 1.475-1.68 3.725 0 1.533.833 3.36.146.277 2.731 4.41 1.753 2.805 1.753 4.704 0 3.009-2.804 5.331-2.805 2.381-5.96 2.381m10.166 22.45q-.482-.35-1.051-.876-.555-.526-1.33-1.227-1.475-1.475-1.475-3.506 0-1.475.847-4.06.702-2.045 2.279-6.106t4.178-10.166q.76-1.826 1.752-4.309.979-2.498 2.104-5.711.277-.774.555-1.797.277-1.008.555-2.351.146-.76.248-1.432t.102-1.154q0-2.454-1.533-3.505l3.432-.57q.555-.058.906-.058h.423q1.198 0 1.198 2.453 0 3.433-1.972 8.896 7.304-11.92 11.642-11.92 2.103 0 3.374 1.754 1.052 1.475 1.052 3.724 0 3.082-1.695 7.012-1.811 3.987-4.207 6.865-4.557 5.404-10.224 5.404-2.6 0-4.777-1.344-1.329 3.374-2.41 6.836-1.095 3.477-2.074 7.128-2.03 7.289-1.899 10.02m9.188-24.188q4.353 0 9.684-7.435 5.185-7.216 5.185-11.568 0-2.235-1.898-2.235-2.659 0-5.887 4.484-1.753 2.527-4.104 6.515-2.352 4.002-5.215 9.392.833.847 2.235.847m30.425-25.679q-2.38 0-2.38-2.307 0-2.323 2.249-2.323 2.38 0 2.38 2.323 0 2.307-2.249 2.307m-6.017 27.14h-3.506q-2.045 0-2.045-2.03 0-1.272.847-3.448 1.826-4.484 3.433-8.267 1.621-3.783 3.023-6.865.205-.351.205-.775 0-.978-.906-2.103l3.856-.073q1.958 0 1.958.979 0 .277-.146.599-.132.32-.35.876l-6.442 14.928q-.98 2.322-.98 3.93 0 1.679 1.053 2.248m6.441.483q1.33-3.36 3.55-8.414 2.205-5.04 5.01-11.495.555-1.403 1.08-2.235.526-.847.95-1.344.905-1.052 2.454-.833l1.475.205q.482.073.876.102.38.044.658-.029-1.402.701-3.258 3.958t-4.104 8.867q.774-.979 1.972-2.63 1.183-1.636 3.009-3.812 2.03-2.38 4.207-4.426 2.176-2.03 4.206-2.03 1.622 0 2.323 1.052t.7 2.38q0 1.622-1.27 2.878-1.256 1.27-2.454 1.27-.482 0-1.008-.218-.526-.205-.526-.628 0-.35.132-.672.146-.307.146-.73 0-1.052-.979-1.052-.35 0-.95.175t-1.577 1.154q-1.971 1.826-4.25 4.382t-4.265 5.711q-2.001 3.155-3.272 6.953-.35 1.052-2.103 1.11-2.381.146-2.732.35m29.798-.204q-2.732 0-4.69-1.753-1.05-.978-1.518-2.278-.453-1.3-.453-2.98 0-6.456 5.331-12.825 4.485-5.404 9.32-5.404 1.62 0 2.745.847 1.184.979 1.184 2.512 0 3.856-5.113 7.713-1.621 1.197-4.28 2.103-2.95.993-4.28.993-.978 2.381-.978 5.04 0 4.557 3.36 4.557 4.425 0 8.282-5.74l.277-.424 1.198.482-.22.423q-1.752 3.506-4.41 5.127-2.673 1.607-5.755 1.607m-1.33-12.27q1.198 0 3.301-.774 1.184-.482 2.28-1.051 1.08-.555 1.927-1.257 3.856-3.228 3.856-6.806 0-1.534-1.124-1.534-1.972 0-5.96 4.835-2.03 2.454-4.28 6.587m12.913 19.135q-.701.22-.701-.204 0-.35.57-.555 4.834-1.622 5.316-6.106-.906.701-1.957.701-1.125 0-1.9-.847-.554-.701-.554-1.46 0-1.549 1.198-2.6 1.051-.848 2.234-.848 2.878 0 2.878 3.798 0 5.667-7.084 8.121m74.888-4.908q-1.695 0-1.695-2.731 0-5.112 5.61-16.9-.702-16.754-6.661-25.445-4.967-7.215-11.773-7.215-4.557 0-7.859 3.155-3.286 3.155-3.286 7.639 0 2.176.833 4.411 2.95 7.084 8.413 10.166.424.22.219.628-.35.351-.628.146-7.23-3.929-10.108-10.94-.7-1.826-1.052-3.535-.35-1.723-.35-3.403 0-5.887 4.002-9.67 3.783-3.724 9.611-3.724 9.67 0 15.63 10.093 5.258 8.91 6.105 22.085 2.863-4.762 5.916-8.866t6.412-7.537q7.858-8.063 15.57-10.59.556-.204 1.3-.35.73-.132 1.651-.278-.146-.132 2.162-.35.35-.074.745-.074h.657q6.106 0 6.106 4.63 0 1.68-1.052 3.156-1.198 1.621-3.009 1.621-1.548 0-2.395-.993-.906-.906-.906-2.162 0-3.374 3.301-3.374 1.607 0 2.308 1.27-.278-1.971-3.433-2.322-4.425-.423-9.465 7.786-4.352 7.157-7.639 17.951-3.155 10.37-3.155 17.177 0 5.887 2.658 5.887 1.9 0 4.63-3.506 2.66-3.36 6.31-10.94.278-.701.702-.833h.073q.277 0 .277.482 0 .57-.277 1.125-3.856 7.858-4.776 9.188-3.506 5.536-6.939 5.96-.204 0-.423.028-.205.044-.424.044-2.512 0-4.689-1.826-3.082-2.731-3.082-8.34 0-6.66 4.558-16.622 3.71-7.917 8.822-15.147 4.28-6.033 8.414-8.691-7.713 2.176-16.754 11.422-7.64 7.858-14.096 18.521.146 14.373-5.185 21.034-.628.76-1.884.76m-35.83 4.425q-2.95 0-4.558-1.68-1.402-1.402-1.402-3.578 0-1.972 1.256-3.433 1.198-1.402 3.155-1.402 1.33 0 2.323.979.76.832.76 2.103 0 1.68-1.257 2.731-1.124 1.052-2.527 1.052-1.68 0-2.585-1.33.131 1.126 1.256 1.885 1.198.774 2.659.774.7 0 1.402-.204 7.508-2.104 15.775-14.373 4.148-6.179 7.756-13.774 3.608-7.61 6.617-16.652.423-1.27.774-1.27t.424.496q.073.482 0 .906-2.03 7.858-3.959 13.847-1.928 6.003-3.754 10.137-8.486 19.134-20.478 22.29-1.884.496-3.637.496"/><path d="M820.59 868.475q-2.732 0-4.704-1.753-1.052-.978-1.504-2.278t-.453-2.98q0-6.456 5.331-12.825 4.484-5.404 9.32-5.404 1.606 0 2.73.847 1.198.979 1.198 2.512 0 3.856-5.127 7.713-1.606 1.197-4.265 2.103-2.95.993-4.28.993-.978 2.381-.978 5.04 0 4.557 3.36 4.557 4.41 0 8.267-5.74l.292-.424 1.183.482-.204.423q-1.753 3.506-4.426 5.127-2.659 1.607-5.74 1.607m-1.33-12.27q1.183 0 3.287-.774 1.197-.482 2.278-1.051 1.096-.555 1.928-1.257 3.857-3.228 3.857-6.806 0-1.534-1.125-1.534-1.957 0-5.96 4.835-2.03 2.454-4.265 6.587m12.898 12.475q1.402-3.433 3.505-8.472 2.104-5.054 5.113-11.642.628-1.402 1.197-2.322.556-.906 1.052-1.402.979-.98 2.527-.98h.482q.35 0 .979.147.993.073 1.475 0-2.585 1.534-7.785 13.599.774-.979 1.972-2.483 1.183-1.52 3.082-3.33 1.957-1.9 3.228-2.951 1.256-1.052 1.752-1.403 3.082-2.307 4.558-2.307 2.03 0 2.03 1.957 0 .628-.277 1.198-.848 1.606-2.148 4.06-1.285 2.454-2.98 5.755 3.375-4.206 5.829-6.383 1.256-1.124 2.833-2.176t3.404-2.104q4.002-2.307 6.032-2.307.482 0 .701.058-1.124 1.972-2.074 3.798-.95 1.811-1.782 3.432-1.972 3.856-3.082 6.588-1.125 2.731-1.475 4.28-.073.482-.102.905-.044.424-.044.774 0 1.826 1.329 1.826 2.176 0 5.2-4.426l.979.702q-3.579 5.404-7.158 5.404-4.41 0-4.41-4.557 0-3.783 4.483-11.014.702-1.11.702-1.884 0-.847-.702-.847-.774 0-2.03.803-1.27.818-2.877 2.279-1.33 1.27-2.776 3.023-1.431 1.753-3.038 3.988-3.505 5.127-4.148 7.931-1.183 0-1.811-1.124-.497-.979-.497-1.958 0-1.402.979-3.724.978-2.308 2.731-5.61 2.045-3.636 2.045-5.258 0-.7-.57-.7-1.124 0-4.98 3.505-.98.92-2.06 2.279-1.095 1.373-2.279 3.198-2.731 4.061-4.206 8.122-.424 1.051-2.177 1.27-2.25.205-2.731.483m45.923-.483q-5.127 0-5.127-6.237 0-3.096 1.475-6.529 2.104-4.98 5.96-8.413 3.783-3.36 7.157-3.36 5.186 0 5.186 6.091 0 3.155-1.549 6.661-1.811 4.207-5.258 7.654-4.265 4.133-7.844 4.133m1.125-1.548q1.606 0 3.432-1.329 2.308-1.68 5.259-7.011 3.228-5.755 3.228-9.26 0-3.156-2.673-3.156-2.104 0-4.762 2.673-2.6 2.586-4.426 6.588-2.454 5.258-2.454 8.413 0 3.082 2.396 3.082m13.175 2.03q1.33-3.359 3.535-8.413 2.22-5.04 5.024-11.495.555-1.403 1.081-2.235.526-.847.95-1.344.905-1.052 2.454-.833l1.475.205q.482.073.876.102.38.044.658-.029-1.403.701-3.258 3.958t-4.104 8.867q.774-.979 1.972-2.63 1.183-1.636 3.009-3.812 2.03-2.38 4.206-4.426 2.177-2.03 4.207-2.03 1.607 0 2.308 1.052t.701 2.38q0 1.622-1.256 2.878-1.256 1.27-2.454 1.27-.497 0-1.022-.218-.526-.205-.526-.628 0-.35.146-.672.146-.307.146-.73 0-1.052-.993-1.052-.35 0-.935.175-.6.175-1.578 1.154-1.972 1.826-4.25 4.382t-4.28 5.711q-1.986 3.155-3.257 6.953-.35 1.052-2.104 1.11-2.38.146-2.731.35m34.442-27.62q-2.38 0-2.38-2.308 0-2.323 2.234-2.323 2.381 0 2.381 2.323 0 2.307-2.235 2.307m-6.032 27.14h-3.506q-2.03 0-2.03-2.03 0-1.272.832-3.448 1.826-4.484 3.448-8.267 1.606-3.783 3.009-6.865.204-.351.204-.775 0-.978-.906-2.103l3.857-.073q1.957 0 1.957.979 0 .277-.132.599-.146.32-.35.876l-6.456 14.928q-.979 2.322-.979 3.93 0 1.679 1.052 2.248m14.504.278q-2.746 0-4.703-1.753-1.052-.978-1.505-2.278t-.452-2.98q0-6.456 5.316-12.825 4.5-5.404 9.334-5.404 1.607 0 2.731.847 1.198.979 1.198 2.512 0 3.856-5.127 7.713-1.606 1.197-4.28 2.103-2.935.993-4.265.993-.993 2.381-.993 5.04 0 4.557 3.374 4.557 4.411 0 8.268-5.74l.277-.424 1.198.482-.205.423q-1.752 3.506-4.425 5.127-2.659 1.607-5.74 1.607m-1.345-12.27q1.198 0 3.301-.774 1.198-.482 2.28-1.051 1.08-.555 1.927-1.257 3.856-3.228 3.856-6.806 0-1.534-1.124-1.534-1.958 0-5.96 4.835-2.03 2.454-4.28 6.587m20.201 12.27q-3.505 0-5.404-2.103-1.534-1.753-1.534-4.207 0-3.579 2.235-3.579.847 0 1.548.628.701.702.701 1.622 0 .555-.277.905-.92 1.125-.92 2.454t.847 2.177q.905.905 2.308.905 1.475 0 2.673-.978 1.606-1.476 1.606-4.061 0-2.25-1.197-5.054-.482-.701-1.154-1.826-.658-1.11-1.505-2.658-.496-.847-.672-1.724t-.175-1.709q0-2.95 2.177-4.703 2.249-1.826 5.755-1.826.978 0 1.928.22.949.204 1.709.773 1.62 1.184 1.62 2.936 0 .774-.277 1.403-.642 1.825-2.746 1.825-2.308 0-2.308-2.38 0-.702.205-1.198.22-.701 1.548-1.402-.496-.906-1.826-.906-1.183 0-1.752.555-1.68 1.475-1.68 3.725 0 1.533.847 3.36.132.277 2.732 4.41 1.752 2.805 1.752 4.704 0 3.009-2.804 5.331-2.805 2.381-5.96 2.381m33.873-.292q-4.557 0-4.557-4.981 0-.979.175-2.03t.599-2.104q3.71-9.815 6.31-15.994h-4.557l.847-1.534h4.338l1.68-4.907q.92-2.6 1.548-3.082.497-.351 2.25-.351l3.009.058q-1.403 1.198-2.104 2.878l-2.308 5.404h5.317l-.832 1.534h-5.127q-.482 1.125-.935 2.25-.468 1.124-1.023 2.307-1.475 3.228-2.527 6.106-1.256 3.301-2 5.682-.731 2.38-.877 3.783-.278 3.433 1.826 3.433 1.972 0 4.776-4.207l.833.979q-3.36 4.776-6.66 4.776m8.675.497q2.396-5.463 6.836-15.659 4.455-10.21 11.043-25.065.073-.219.117-.423.029-.22.029-.424 0-.979-.847-2.103h3.798q1.957 0 1.957.905 0 .497-.424 1.476-2.176 4.703-5.609 12.342l-8.194 18.23q1.052-1.476 2.512-3.01 1.476-1.548 3.301-3.155 1.257-1.197 2.805-2.278 1.548-1.096 3.36-2.075 4.148-2.307 6.105-2.307.497 0 .701.058-1.125 1.972-2.074 3.798-.935 1.811-1.782 3.432-4.06 7.844-4.557 10.868-.205 1.051-.205 1.825 0 1.885 1.402 1.885 1.885 0 5.113-4.689l1.051.628q-3.651 5.536-7.215 5.536-4.426 0-4.426-4.557 0-3.71 4.557-11.014.701-1.11.701-1.884 0-.847-.774-.847-.76 0-1.986.803-1.227.818-2.922 2.352-2.658 2.454-5.01 5.93-2.351 3.462-4.382 7.96-.482 1.053-2.235 1.111-2.322.146-2.746.35m46.274-.35q-1.534 0-2.512-.906-1.402-1.197-1.402-4.002 0-1.811.628-4.134-2.381 4.003-4.981 6.53-2.659 2.454-4.762 2.454-1.826 0-2.877-1.622-1.125-1.534-1.125-4.28 0-6.66 5.96-13.73.978-1.198 2.249-2.176 1.256-.979 2.731-1.753 3.01-1.548 5.814-1.548 3.432 0 5.477 2.25.482.481.482 1.124 0 1.183-1.256.905-.701-2.526-3.301-2.526-2.936 0-6.938 4.133-1.402 1.549-2.659 3.2-1.27 1.65-2.395 3.46-3.01 5.055-3.01 8.21 0 2.38 1.827 2.38 2.03 0 4.688-3.081 1.476-1.68 3.024-4.134 1.534-2.454 3.228-5.682.701-1.33 1.256-2.176.555-.833.906-1.257 1.125-1.124 2.673-1.051l1.402.204q.906.22 1.534.073-.628.628-1.505 2.001-.876 1.359-2 3.535-1.184 2.323-1.958 4.207-.774 1.899-1.052 3.374-.146.701-.204 1.285-.073.6-.073 1.096 0 1.826.978 1.826 1.403 0 3.857-3.097l.277-.35.979.642-.278.41q-2.877 4.206-5.682 4.206m15.425-.146q-4.557 0-4.557-4.981 0-.979.175-2.03t.599-2.104q3.724-9.815 6.31-15.994h-4.558l.848-1.534h4.338l1.694-4.907q.906-2.6 1.534-3.082.496-.351 2.25-.351l3.008.058q-1.402 1.198-2.103 2.878l-2.308 5.404h5.331l-.847 1.534h-5.112q-.497 1.125-.95 2.25t-1.022 2.307q-1.475 3.228-2.527 6.106-1.256 3.301-1.986 5.682-.745 2.38-.877 3.783-.292 3.433 1.811 3.433 1.972 0 4.777-4.207l.832.979q-3.36 4.776-6.66 4.776m62.122 7.39q-2.805 0-6.062-.876t-6.982-2.629l-12.62-6.178q-5.04 5.609-10.093 5.609-1.607 0-2.805-.98-1.124-.905-1.124-2.453 0-3.155 3.797-4.908 1.811-.832 4.338-.832 2.6 0 5.127.832l.205.073q.423-.774.847-1.65l.833-1.782q1.898-4.558 3.68-9.115 1.797-4.557 3.681-9.041 2.25-5.405 5.156-9.538t6.208-7.158q3.01-2.658 7.713-4.63 4.761-1.957 8.764-1.957 5.682 0 5.682 4.352 0 1.885-1.271 3.506-1.402 1.607-3.155 1.607-1.33 0-2.308-.979-.92-.978-.701-2.38.423-3.229 3.505-3.229 1.534 0 2.235 1.33-.204-2.381-3.914-2.381-.92 0-1.753.204-8.21 2.322-15.147 13.117-1.753 2.658-5.054 8.486-3.287 5.814-8.194 14.782-2.323 4.207-4.704 7.23 2.95 1.184 5.887 2.454 2.95 1.256 5.96 2.454 6.937 2.732 11.495 2.732 1.402 0 2.702-.249t2.498-.657q2.862-1.052 4.907-3.374 1.958-2.235 1.958-4.63 0-3.564-4.762-5.186-.774-.277-1.65-.423-.877-.132-1.856-.132-3.228 0-6.66 1.402-2.177.906-4.149 2.352-1.957 1.432-3.71 3.389-.277.292-.555.292-.57 0-.57-.424 0-.146.074-.219 3.3-4.761 8.062-6.719 2.951-1.27 6.457-1.27 2.585 0 4.688.7 6.661 2.104 6.661 8.283 0 3.36-2.308 6.237-1.198 1.475-2.731 2.483-1.549 1.022-3.506 1.504-1.198.292-2.395.424-1.184.146-2.381.146m-35.407-5.478q4.207 0 7.932-4.966-1.344-.497-2.527-.774-1.198-.278-2.323-.35-5.258.072-5.609 3.783v.204q0 .847.643 1.402.701.701 1.884.701m69.835-1.767q-1.549 0-2.527-.906-1.403-1.197-1.403-4.002 0-1.811.628-4.134-2.38 4.003-4.966 6.53-2.673 2.454-4.776 2.454-1.826 0-2.878-1.622-1.11-1.534-1.11-4.28 0-6.66 5.96-13.73.978-1.198 2.235-2.176 1.27-.979 2.731-1.753 3.024-1.548 5.828-1.548 3.433 0 5.463 2.25.497.481.497 1.124 0 1.183-1.271.905-.701-2.526-3.287-2.526-2.95 0-6.938 4.133-1.402 1.549-2.673 3.2-1.256 1.65-2.38 3.46-3.01 5.055-3.01 8.21 0 2.38 1.811 2.38 2.045 0 4.704-3.081 1.475-1.68 3.009-4.134 1.548-2.454 3.228-5.682.7-1.33 1.27-2.176.556-.833.906-1.257 1.125-1.124 2.659-1.051l1.402.204q.92.22 1.548.073-.628.628-1.504 2.001-.877 1.359-2.001 3.535-1.198 2.323-1.958 4.207-.774 1.899-1.051 3.374-.146.701-.22 1.285-.073.6-.073 1.096 0 1.826.994 1.826 1.402 0 3.856-3.097l.277-.35.979.642-.277.41q-2.878 4.206-5.682 4.206m15 .146q-3.505 0-5.39-2.103-1.548-1.753-1.548-4.207 0-3.579 2.25-3.579.832 0 1.533.628.702.702.702 1.622 0 .555-.278.905-.906 1.125-.906 2.454t.833 2.177q.92.905 2.323.905 1.46 0 2.658-.978 1.607-1.476 1.607-4.061 0-2.25-1.183-5.054-.497-.701-1.154-1.826-.672-1.11-1.52-2.658-.482-.847-.657-1.724t-.175-1.709q0-2.95 2.176-4.703 2.235-1.826 5.74-1.826.98 0 1.929.22.95.204 1.723.773 1.607 1.184 1.607 2.936 0 .774-.277 1.403-.629 1.825-2.732 1.825-2.322 0-2.322-2.38 0-.702.219-1.198.204-.701 1.533-1.402-.482-.906-1.81-.906-1.198 0-1.754.555-1.694 1.475-1.694 3.725 0 1.533.847 3.36.146.277 2.732 4.41 1.752 2.805 1.752 4.704 0 3.009-2.804 5.331-2.804 2.381-5.96 2.381m18.945-.292q-4.557 0-4.557-4.981 0-.979.175-2.03t.6-2.104q3.71-9.815 6.31-15.994h-4.558l.847-1.534h4.338l1.68-4.907q.92-2.6 1.548-3.082.497-.351 2.25-.351l3.009.058q-1.402 1.198-2.104 2.878l-2.307 5.404h5.316l-.832 1.534h-5.127q-.482 1.125-.935 2.25-.467 1.124-1.022 2.307-1.476 3.228-2.527 6.106-1.257 3.301-2.001 5.682-.73 2.38-.877 3.783-.277 3.433 1.826 3.433 1.972 0 4.776-4.207l.833.979q-3.36 4.776-6.66 4.776m14.095.993q-1.125 0-1.9-.847-.554-.701-.554-1.46 0-1.549 1.198-2.6 1.051-.848 2.234-.848 1.198 0 1.9.847.554.701.554 1.476 0 1.475-1.256 2.585-.92.847-2.176.847"/><g stroke="#fff" stroke-width="3" transform="translate(-86.129 170.446)scale(1.46066)"><path d="M365.138 300.295v118.082"/>undefined
        undefined</g><path d="M265.224 626.027v133.008h142.18V626.027Zm27.519 128.421H269.81v-22.932h22.933Zm27.519 0h-22.933v-22.932h22.933Zm27.518 0h-22.932v-22.932h22.932Zm27.52 0h-22.933v-22.932h22.932Zm27.518 0h-22.932v-22.932h22.932Zm0-82.556v4.586h-22.932v22.933h22.932v27.519h-22.932v-22.933h-4.587v22.933h-22.932v-22.933h-4.587v22.933h-22.932v-22.933h-4.586v22.933h-22.933v-22.933h-4.586v22.933H269.81v-22.933h22.933v-4.586H269.81v-22.933h22.933v-4.586H269.81v-22.933h22.933v22.933h4.586v-22.933h22.933v22.933h4.586v-22.933h22.932v22.933h4.587v-22.933h22.932v22.933h4.587v-22.933h22.932Z"/><path d="M297.33 676.478h22.932v22.933h-22.933Zm55.037 0h22.932v22.933h-22.932Zm-27.519 0h22.932v22.933h-22.932Z"/><path stroke="#fff" stroke-width="6.71" d="M585.846 753.858H491.03v-3.069h13.979V632.417H491.03v-3.057h92.127v39.843h-3.055q0-23.175-7.187-29.98-7.186-6.807-30.74-6.807h-17.238v54.976h10.147q13.789 0 18.962-5.271 5.177-5.257 5.177-19.249h3.246v52.679h-3.246q0-14.182-5.177-19.628-5.175-5.462-18.962-5.462h-10.147v60.328h15.512q14.563 0 22.414-1.535 7.852-1.522 12.825-6.697 4.983-5.176 6.613-12.933t2.392-22.698h3.07Zm84.657-22.603 25.661-74.509q1.725-4.782 1.725-9.957t-2.104-8.136q-2.107-2.977-6.318-4.32-6.9-1.917-17.823-1.917H668.4v-3.056h56.686v3.056q-10.147 0-15.418 5.653-5.257 5.65-9.278 17.726l-31.23 90.212q-1.331 4.211-2.485 6.318-2.69 5.365-8.817 5.365h-.57L618.6 632.416H605v-3.056h49.801v3.056h-14.183l28.732 98.839Zm158.976 22.603h-94.817v-3.069h13.993V632.417h-13.993v-3.057h92.141v39.843h-3.07q0-23.175-7.187-29.98-7.186-6.807-30.74-6.807h-17.238v54.976h10.147q13.802 0 18.964-5.271 5.175-5.257 5.175-19.249h3.26v52.679h-3.26q0-14.182-5.175-19.628-5.162-5.462-18.964-5.462h-10.147v60.328h15.512q14.563 0 22.415-1.535 7.852-1.522 12.837-6.697 4.972-5.176 6.602-12.933t2.391-22.698h3.07Zm131.591-97.112v98.458H958q-6.318 0-10.244-4.035-3.925-4.02-10.445-15.322l-50.56-86.953h-.775v77.58q0 13.978 5.27 19.154 5.272 5.161 19.249 5.161h1.345v3.07h-54.785v-3.07q13.993 0 19.535-5.258 5.555-5.27 5.555-19.057v-85.431q-5.162-8.817-20.105-8.817v-2.866h19.915q9.196 0 13.896 3.166 4.688 3.15 9.468 11.193l50.764 87.156h1.154v-74.129q0-13.978-5.27-19.153-5.27-5.177-19.248-5.177h-1.344v-3.056h54.783v3.056q-13.991 0-19.546 5.272-5.543 5.27-5.543 19.058Zm116.063 97.112h-49.802v-3.069h13.992V632.417q-17.633 0-26.055 5.745-6.9 4.416-9.386 19.928-.951 6.128-1.534 16.859h-3.057l1.913-45.589h96.15l1.916 45.588h-3.07q-.951-18.963-3.926-26.624-2.961-7.663-6.982-10.162-8.436-5.746-26.054-5.746v118.372h15.892Zm107.843-124.308h49.8v3.07q-9.006.38-15.132 3.735-6.14 3.342-10.542 11.97l-23.175 45.966v56.498h15.894v3.07h-49.8v-3.07h13.993v-54.582l-34.289-63.79h-13.992v-3.055h51.335v3.055h-15.893l30.645 58.047 16.084-31.23q4.986-9.958 4.986-16.085t-4.7-8.326q-4.687-2.201-13.693-2.201h-1.522Z"/></g><path fill="transparent" stroke="transparent" stroke-width="1.506" d="M250 604.669h1000V895.33H250z"/></g></svg>